<svg width="15" height="16" viewBox="0 0 15 16" fill="none" xmlns="http://www.w3.org/2000/svg">
    <path
        d="M0.499991 8C0.499991 11.866 3.634 15 7.49999 15C11.366 15 14.5 11.866 14.5 8C14.5 4.13401 11.366 1 7.49999 1C3.634 1 0.499991 4.13401 0.499991 8Z"
        stroke="#2D3436" />
    <path fill-rule="evenodd" clip-rule="evenodd"
        d="M7.50357 3.50003C8.47263 3.50003 9.4233 3.42126 10.3495 3.26978C10.9622 3.16957 11.545 3.6076 11.6617 4.21739C11.9825 5.89373 12.7633 7.37343 13.8452 8.47508C14.2901 8.92805 15 8.63492 15 8.00003C15 5.92373 14.1563 4.04448 12.793 2.68644C12.4123 2.30724 11.9911 1.96868 11.5365 1.67781C10.3712 0.932239 8.98607 0.500027 7.5 0.500027C6.01395 0.500027 4.62885 0.932221 3.46353 1.67777C3.46352 1.67778 3.46351 1.67777 3.46351 1.67776C3.46351 1.67775 3.4635 1.67775 3.46349 1.67775C1.38068 3.01031 -7.62939e-06 5.34391 -7.62939e-06 7.99999C-7.62939e-06 8.63468 0.709657 8.92775 1.15442 8.47496C2.23666 7.37317 3.01762 5.89314 3.33844 4.21643C3.45516 3.6064 4.03824 3.16824 4.65115 3.26872C5.57941 3.42089 6.53225 3.50003 7.50357 3.50003ZM3.09516 10.4935C3.0669 10.5291 3.06849 10.58 3.09861 10.614C4.13003 11.7799 5.56391 12.0811 6.80107 11.5204C7.21967 11.3307 7.71588 11.3338 8.13167 11.5296C9.37909 12.117 10.835 11.8218 11.8784 10.6409C11.9091 10.6061 11.9107 10.5542 11.8818 10.5179C10.8703 9.24474 9.40343 8.87482 8.12519 9.41118C7.73353 9.57552 7.28041 9.57276 6.89106 9.40304C5.60363 8.84184 4.11681 9.20639 3.09516 10.4935Z"
        fill="#2D3436" />
</svg>
