<svg width="16" height="16" viewBox="0 0 16 16" fill="none" xmlns="http://www.w3.org/2000/svg">
    <path fill-rule="evenodd" clip-rule="evenodd"
        d="M5.44782 12.4876C4.99721 12.037 4.99721 11.3064 5.44782 10.8558L12.794 3.50958C13.2446 3.05898 13.9752 3.05898 14.4258 3.50958C14.8764 3.96019 14.8764 4.69076 14.4258 5.14137L7.0796 12.4876C6.629 12.9382 5.89842 12.9382 5.44782 12.4876Z"
        fill="#2D3436" />
    <path fill-rule="evenodd" clip-rule="evenodd"
        d="M7.07509 12.4887C6.62449 12.9393 5.89391 12.9393 5.44331 12.4887L1.77179 8.81717C1.32119 8.36657 1.32119 7.63599 1.77179 7.18539C2.2224 6.73478 2.95297 6.73478 3.40358 7.18539L7.07509 10.8569C7.5257 11.3075 7.5257 12.0381 7.07509 12.4887Z"
        fill="#2D3436" />
</svg>
