<svg width="15" height="16" viewBox="0 0 15 16" fill="none" xmlns="http://www.w3.org/2000/svg">
    <path
        d="M9.5 12.5V14H6C5.17157 14 4.5 13.3284 4.5 12.5V6.5C4.5 5.67157 5.17157 5 6 5H12C12.8284 5 13.5 5.67157 13.5 6.5V10H12C10.6193 10 9.5 11.1193 9.5 12.5ZM12 11H12.7929L10.5 13.2929V12.5C10.5 11.6716 11.1716 11 12 11Z"
        stroke="#85949A" />
    <line x1="6.5" y1="7" x2="11.5" y2="7" stroke="#85949A" stroke-linecap="round" />
    <path d="M6.5 9H9.5" stroke="#85949A" stroke-linecap="round" />
    <line x1="6.5" y1="11" x2="8.5" y2="11" stroke="#85949A" stroke-linecap="round" />
    <path
        d="M3 12.5C3.27614 12.5 3.5 12.2761 3.5 12C3.5 11.7239 3.27614 11.5 3 11.5V12.5ZM11 3.5C11 3.77614 11.2239 4 11.5 4C11.7761 4 12 3.77614 12 3.5H11ZM3.5 2.5H10V1.5H3.5V2.5ZM2 10.5V4H1V10.5H2ZM1 10.5C1 11.6046 1.89543 12.5 3 12.5V11.5C2.44772 11.5 2 11.0523 2 10.5H1ZM10 2.5C10.5523 2.5 11 2.94772 11 3.5H12C12 2.39543 11.1046 1.5 10 1.5V2.5ZM3.5 1.5C2.11929 1.5 1 2.61929 1 4H2C2 3.17157 2.67157 2.5 3.5 2.5V1.5Z"
        fill="#85949A" />
</svg>
