<svg width="15" height="16" viewBox="0 0 15 16" fill="none" xmlns="http://www.w3.org/2000/svg">
    <path
        d="M7.57623 10.2234C8.80849 10.2234 9.80743 9.22447 9.80743 7.99221C9.80743 6.75996 8.80849 5.76102 7.57623 5.76102C6.34397 5.76102 5.34503 6.75996 5.34503 7.99221C5.34503 9.22447 6.34397 10.2234 7.57623 10.2234Z"
        stroke="#2D3436" stroke-linecap="round" stroke-linejoin="round" />
    <path
        d="M9.80627 7.9916V9.18157C9.80627 10.2228 10.6987 10.9665 11.5912 10.9665C12.6325 10.9665 13.3762 10.0741 13.3762 9.18157V8.28909C13.5249 5.01667 10.9962 2.19049 7.72382 2.04174C4.45139 1.89299 1.62521 4.57043 1.62521 7.84285C1.47646 10.669 3.41017 13.1977 6.23635 13.7927C7.27758 14.0902 8.17006 13.9415 9.21128 13.7927"
        stroke="#2D3436" stroke-linecap="round" stroke-linejoin="round" />
</svg>
