<svg width="15" height="16" viewBox="0 0 15 16" fill="none" xmlns="http://www.w3.org/2000/svg">
    <path
        d="M9.54482 5.41368C9.07464 4.75743 8.86918 3.96737 9.4483 3.29242L10.8961 1.84611C11.4752 1.26759 12.4404 1.36401 13.0195 1.94253C13.7917 2.7139 14.394 4.33499 13.8148 5.20278C11.5949 8.86677 8.40974 12.0486 4.742 14.3627C3.7768 14.8449 2.11281 14.2844 1.43717 13.513C0.858051 12.9345 0.761532 12.0667 1.34065 11.3918L2.78844 9.94545C3.36756 9.36693 4.25157 9.32666 4.91188 10.0419L5.49099 10.6204C7.13183 9.27051 8.67614 7.72778 10.0274 6.08862L9.54482 5.41368Z"
        stroke="#2D3436" stroke-linecap="round" stroke-linejoin="round" />
</svg>
