<svg width="15" height="16" viewBox="0 0 15 16" fill="none" xmlns="http://www.w3.org/2000/svg">
    <path
        d="M3.89766 1.13926C4.06334 1.13926 4.19766 1.00495 4.19766 0.839261C4.19766 0.673575 4.06334 0.539261 3.89766 0.539261C3.73197 0.539261 3.59766 0.673575 3.59766 0.839261C3.59766 1.00495 3.73197 1.13926 3.89766 1.13926Z"
        fill="#2D3436" />
    <path
        d="M3.16349 1.11041C3.25353 1.24949 3.21377 1.43524 3.07468 1.52528C1.64995 2.44761 0.738281 4.01043 0.738281 5.71008C0.738281 6.38332 1.12457 7.04844 1.50708 7.49321C1.66994 7.68258 1.94239 7.87098 2.27527 8.01228C2.60586 8.15261 2.97367 8.23686 3.31289 8.23686C3.32202 8.23686 3.33116 8.23728 3.34026 8.23811C4.01026 8.2995 4.623 8.05894 5.12616 7.55524C5.57967 7.02997 5.88769 6.37521 5.88769 5.69185C5.88769 5.68525 5.88791 5.67864 5.88834 5.67205C5.94117 4.87338 5.44023 4.08221 4.69415 3.59231C4.49585 4.02673 4.15719 4.28221 3.93659 4.44864L3.91447 4.46534C3.84553 4.51745 3.75746 4.53731 3.67282 4.51981C3.58818 4.50231 3.5152 4.44916 3.47258 4.37398C3.05327 3.63435 2.9886 2.79278 3.19819 2.01977C3.24155 1.85986 3.40633 1.76537 3.56625 1.80873C3.72616 1.85209 3.82064 2.01688 3.77728 2.17679C3.63562 2.69923 3.64835 3.24805 3.84115 3.75267C4.01934 3.5878 4.17095 3.38598 4.22906 3.08996C4.24714 2.99786 4.30728 2.91953 4.39158 2.87828C4.47589 2.83703 4.57464 2.83761 4.65845 2.87985C5.70795 3.40877 6.56283 4.48915 6.48767 5.7017C6.48473 6.56592 6.09517 7.35429 5.57269 7.95616C5.56833 7.96119 5.5638 7.96606 5.55911 7.97079C4.94502 8.58976 4.16309 8.91189 3.29913 8.83682C2.87137 8.83461 2.42923 8.72945 2.04084 8.56459C1.65058 8.39894 1.29202 8.16333 1.05217 7.88444C0.629284 7.39272 0.138281 6.59157 0.138281 5.71008C0.138281 3.7923 1.16576 2.04631 2.74862 1.02161C2.8877 0.931566 3.07345 0.971324 3.16349 1.11041Z"
        fill="#2D3436" />
    <path
        d="M11.7988 14.1155C9.2202 14.4592 7.34496 14.4487 4.73534 14.1091C4.08972 14.025 3.58192 13.5158 3.49931 12.8698C3.35528 11.7435 3.27118 10.7578 3.24895 9.79309C3.24513 9.62745 3.10776 9.49626 2.94212 9.50008C2.77647 9.5039 2.64529 9.64127 2.64911 9.80692C2.67194 10.7977 2.75825 11.8049 2.90415 12.9459C3.02133 13.8622 3.74161 14.5848 4.65791 14.704C7.31676 15.0501 9.24475 15.0612 11.8781 14.7102C12.794 14.5882 13.5084 13.8607 13.6208 12.9454C13.9402 10.3449 13.9584 8.42866 13.6264 5.73027C13.5121 4.80133 12.7767 4.07127 11.8467 3.96446C10.4248 3.80115 9.19022 3.72934 7.94096 3.74588H7.2C7.03431 3.74588 6.9 3.88019 6.9 4.04588C6.9 4.21156 7.03431 4.34588 7.2 4.34588H7.94297L7.94696 4.34585C9.16686 4.32961 10.376 4.3995 11.7782 4.56054C12.4327 4.63571 12.9504 5.14948 13.0309 5.80355C13.3567 8.45116 13.339 10.3182 13.0253 12.8723C12.9459 13.5183 12.4421 14.0298 11.7988 14.1155Z"
        fill="#2D3436" />
    <path
        d="M10.7672 9.35586C10.7672 10.7435 9.6423 11.8684 8.25469 11.8684C6.86707 11.8684 5.74219 10.7435 5.74219 9.35586C5.74219 9.19018 5.60787 9.05586 5.44219 9.05586C5.2765 9.05586 5.14219 9.19018 5.14219 9.35586C5.14219 11.0748 6.5357 12.4684 8.25469 12.4684C9.97367 12.4684 11.3672 11.0748 11.3672 9.35586C11.3672 7.63687 9.97367 6.24336 8.25469 6.24336C7.89144 6.24336 7.54211 6.30571 7.21721 6.42055C7.061 6.47576 6.97912 6.64716 7.03434 6.80337C7.08955 6.95959 7.26095 7.04146 7.41716 6.98625C7.67873 6.8938 7.96049 6.84336 8.25469 6.84336C9.6423 6.84336 10.7672 7.96825 10.7672 9.35586Z"
        fill="#2D3436" />
    <path
        d="M8.59219 13.1188C8.59219 12.9531 8.7265 12.8188 8.89219 12.8188C9.05787 12.8188 9.19219 12.9531 9.19219 13.1188C9.19219 13.2844 9.05787 13.4188 8.89219 13.4188C8.7265 13.4188 8.59219 13.2844 8.59219 13.1188Z"
        fill="#2D3436" />
    <path
        d="M7.64297 12.8188C7.47728 12.8188 7.34297 12.9531 7.34297 13.1188C7.34297 13.2844 7.47728 13.4188 7.64297 13.4188C7.80865 13.4188 7.94297 13.2844 7.94297 13.1188C7.94297 12.9531 7.80865 12.8188 7.64297 12.8188Z"
        fill="#2D3436" />
    <path
        d="M3.59297 9.99336C3.59297 9.82768 3.72728 9.69336 3.89297 9.69336C4.05865 9.69336 4.19297 9.82768 4.19297 9.99336C4.19297 10.159 4.05865 10.2934 3.89297 10.2934C3.72728 10.2934 3.59297 10.159 3.59297 9.99336Z"
        fill="#2D3436" />
    <path
        d="M4.51875 10.3186C4.35306 10.3186 4.21875 10.4529 4.21875 10.6186C4.21875 10.7842 4.35306 10.9186 4.51875 10.9186C4.68444 10.9186 4.81875 10.7842 4.81875 10.6186C4.81875 10.4529 4.68444 10.3186 4.51875 10.3186Z"
        fill="#2D3436" />
    <path
        d="M3.59297 11.2438C3.59297 11.0781 3.72728 10.9438 3.89297 10.9438C4.05865 10.9438 4.19297 11.0781 4.19297 11.2438C4.19297 11.4094 4.05865 11.5438 3.89297 11.5438C3.72728 11.5438 3.59297 11.4094 3.59297 11.2438Z"
        fill="#2D3436" />
    <path
        d="M9.51797 13.4434C9.35228 13.4434 9.21797 13.5777 9.21797 13.7434C9.21797 13.909 9.35228 14.0434 9.51797 14.0434C9.68365 14.0434 9.81797 13.909 9.81797 13.7434C9.81797 13.5777 9.68365 13.4434 9.51797 13.4434Z"
        fill="#2D3436" />
    <path
        d="M7.96875 13.7434C7.96875 13.5777 8.10306 13.4434 8.26875 13.4434C8.43443 13.4434 8.56875 13.5777 8.56875 13.7434C8.56875 13.909 8.43443 14.0434 8.26875 14.0434C8.10306 14.0434 7.96875 13.909 7.96875 13.7434Z"
        fill="#2D3436" />
    <path
        d="M10.1438 5.94336C9.97806 5.94336 9.84375 6.07768 9.84375 6.24336C9.84375 6.40905 9.97806 6.54336 10.1438 6.54336C10.3094 6.54336 10.4438 6.40905 10.4438 6.24336C10.4438 6.07768 10.3094 5.94336 10.1438 5.94336Z"
        fill="#2D3436" />
    <path
        d="M11.093 6.24336C11.093 6.07768 11.2273 5.94336 11.393 5.94336C11.5587 5.94336 11.693 6.07768 11.693 6.24336C11.693 6.40905 11.5587 6.54336 11.393 6.54336C11.2273 6.54336 11.093 6.40905 11.093 6.24336Z"
        fill="#2D3436" />
    <path
        d="M10.7672 5.31875C10.6015 5.31875 10.4672 5.45307 10.4672 5.61875C10.4672 5.78444 10.6015 5.91875 10.7672 5.91875C10.9329 5.91875 11.0672 5.78444 11.0672 5.61875C11.0672 5.45307 10.9329 5.31875 10.7672 5.31875Z"
        fill="#2D3436" />
    <path
        d="M10.4672 6.86856C10.4672 6.70287 10.6015 6.56856 10.7672 6.56856C10.9329 6.56856 11.0672 6.70287 11.0672 6.86856C11.0672 7.03424 10.9329 7.16856 10.7672 7.16856C10.6015 7.16856 10.4672 7.03424 10.4672 6.86856Z"
        fill="#2D3436" />
    <path
        d="M12.0188 5.31875C11.8531 5.31875 11.7188 5.45307 11.7188 5.61875C11.7188 5.78444 11.8531 5.91875 12.0188 5.91875C12.1844 5.91875 12.3188 5.78444 12.3188 5.61875C12.3188 5.45307 12.1844 5.31875 12.0188 5.31875Z"
        fill="#2D3436" />
    <path
        d="M9.84375 4.99356C9.84375 4.82787 9.97806 4.69356 10.1438 4.69356C10.3094 4.69356 10.4438 4.82787 10.4438 4.99356C10.4438 5.15924 10.3094 5.29356 10.1438 5.29356C9.97806 5.29356 9.84375 5.15924 9.84375 4.99356Z"
        fill="#2D3436" />
    <path
        d="M11.393 4.69356C11.2273 4.69356 11.093 4.82787 11.093 4.99356C11.093 5.15924 11.2273 5.29356 11.393 5.29356C11.5587 5.29356 11.693 5.15924 11.693 4.99356C11.693 4.82787 11.5587 4.69356 11.393 4.69356Z"
        fill="#2D3436" />
</svg>
