<svg width="24" height="24" viewBox="0 0 24 24" fill="none" xmlns="http://www.w3.org/2000/svg">
    <path fill-rule="evenodd" clip-rule="evenodd"
        d="M16.022 8.7836C16.0351 8.79536 16.0475 8.8078 16.0593 8.82085L20.1339 12.8955H21.5666C21.8427 12.8955 22.0666 13.1194 22.0666 13.3955C22.0666 13.6717 21.8427 13.8955 21.5666 13.8955H20.4298V18.6217C20.4298 18.6589 20.4257 18.695 20.418 18.7299C20.4244 18.7616 20.4277 18.7944 20.4277 18.828V22.5674H22.6174C22.8935 22.5674 23.1174 22.7913 23.1174 23.0674C23.1174 23.3435 22.8935 23.5674 22.6174 23.5674H19.9568C19.9471 23.568 19.9374 23.5682 19.9277 23.5682H3.0118C2.73566 23.5682 2.5118 23.3444 2.5118 23.0682V6.15236C2.5118 5.87622 2.73566 5.65236 3.0118 5.65236H6.73836V1.4258H6.36336C6.08722 1.4258 5.86336 1.20194 5.86336 0.925801C5.86336 0.649659 6.08722 0.425801 6.36336 0.425801H7.46057C7.61649 0.425801 7.75574 0.497169 7.84744 0.60902L16.022 8.7836ZM7.73836 6.12394V1.91416L10.9454 5.12119V9.87972H7.73916V6.15236C7.73916 6.14282 7.73889 6.13335 7.73836 6.12394ZM11.9454 10.259V6.12119L15.1876 9.36338V14.1071H11.9601V10.3797C11.9601 10.3381 11.955 10.2976 11.9454 10.259ZM16.1876 14.9035V10.3634L19.4298 13.6056V18.328H16.1874V14.916L16.1876 14.9035ZM3.5118 6.65236V22.5682H19.4277V19.328H15.6874C15.4113 19.328 15.1874 19.1041 15.1874 18.828V15.1071H11.4601C11.1839 15.1071 10.9601 14.8832 10.9601 14.6071V10.8797H7.23916C6.96301 10.8797 6.73916 10.6559 6.73916 10.3797V6.65236H3.5118Z"
        fill="#2D3436" />
    <path
        d="M5.25399 0.925801C5.25399 1.20194 5.03013 1.4258 4.75399 1.4258C4.47784 1.4258 4.25399 1.20194 4.25399 0.925801C4.25399 0.649659 4.47784 0.425801 4.75399 0.425801C5.03013 0.425801 5.25399 0.649659 5.25399 0.925801Z"
        fill="#2D3436" />
    <path
        d="M1.00008 23.5674C1.27622 23.5674 1.50008 23.3435 1.50008 23.0674C1.50008 22.7913 1.27622 22.5674 1.00008 22.5674C0.723939 22.5674 0.500081 22.7913 0.500081 23.0674C0.500081 23.3435 0.723939 23.5674 1.00008 23.5674Z"
        fill="#2D3436" />
</svg>
