<svg width="15" height="16" viewBox="0 0 15 16" fill="none" xmlns="http://www.w3.org/2000/svg">
    <path
        d="M11.0127 7.19462C11.0127 7.14937 10.9674 7.10413 10.8769 7.10413C10.8317 7.10413 10.7864 7.14937 10.7412 7.19462C10.2283 8.06948 8.43336 11.0712 8.43336 12.2326C8.43336 13.5751 9.54956 14.6762 10.8769 14.6762C12.2194 14.6762 13.3205 13.56 13.3205 12.2326C13.3657 11.0712 11.5708 8.02423 11.0127 7.19462Z"
        stroke="#2D3436" stroke-width="0.5" stroke-linecap="round" stroke-linejoin="round" />
    <path
        d="M7.08218 11.5006C6.97873 11.5022 6.87457 11.5029 6.76978 11.5029C5.25533 11.5029 3.87865 11.3411 2.83287 11.078C2.51155 10.9971 2.28425 10.7004 2.26851 10.3401C2.26835 10.3365 2.26813 10.3328 2.26783 10.3292L2.26785 10.3215L2.26766 10.2998L2.26766 9.7409L2.26782 9.72171L2.26783 9.71918L2.26784 3.08864L2.26844 3.0805L2.26869 3.07568C2.28444 2.71539 2.51174 2.41867 2.83305 2.33782C3.87882 2.07466 5.2555 1.91287 6.76996 1.91287C8.28446 1.91287 9.66117 2.07467 10.707 2.33784C11.0283 2.41869 11.2555 2.71541 11.2713 3.07568C11.2715 3.08002 11.2718 3.08434 11.2722 3.08864L11.2722 5.5571C11.2722 5.71976 11.404 5.85163 11.5667 5.85163C11.7293 5.85163 11.8612 5.71976 11.8612 5.5571L11.8612 3.06393C11.8612 3.05021 11.8603 3.03659 11.8584 3.02316C11.8225 2.44616 11.4461 1.91641 10.8507 1.76659C9.74827 1.48917 8.32185 1.32382 6.76996 1.32382C5.21812 1.32382 3.79173 1.48916 2.6893 1.76657C2.09393 1.91639 1.71745 2.44615 1.68161 3.02318C1.67974 3.0366 1.67878 3.05021 1.67878 3.06393L1.67878 9.71918L1.67862 9.73709L1.67861 9.73961L1.6786 10.3011L1.67878 10.3215L1.67878 10.352C1.67878 10.365 1.67964 10.3778 1.68131 10.3905C1.71637 10.9684 2.09303 11.4992 2.68913 11.6492C3.79155 11.9266 5.21794 12.092 6.76978 12.092C6.87747 12.092 6.98453 12.0912 7.09089 12.0896C7.25354 12.0872 7.38344 11.9534 7.38103 11.7908C7.37863 11.6281 7.24483 11.4982 7.08218 11.5006Z"
        fill="#2D3436" />
    <path fill-rule="evenodd" clip-rule="evenodd"
        d="M6.7817 4.39587C6.53033 4.39587 6.32623 4.59957 6.32623 4.85125C6.32623 5.10292 6.53033 5.30662 6.7817 5.30662C7.03307 5.30662 7.23718 5.10292 7.23718 4.85125C7.23718 4.59957 7.03307 4.39587 6.7817 4.39587ZM6.91528 4.85125C6.91528 4.92526 6.85529 4.98493 6.7817 4.98493C6.70811 4.98493 6.64813 4.92526 6.64813 4.85125C6.64813 4.77723 6.70811 4.71757 6.7817 4.71757C6.85529 4.71757 6.91528 4.77723 6.91528 4.85125Z"
        fill="#2D3436" />
    <path fill-rule="evenodd" clip-rule="evenodd"
        d="M5.55489 5.62258C5.55489 5.37091 5.75899 5.16721 6.01037 5.16721C6.26174 5.16721 6.46584 5.37091 6.46584 5.62258C6.46584 5.87426 6.26174 6.07796 6.01037 6.07796C5.75899 6.07796 5.55489 5.87426 5.55489 5.62258ZM6.01037 5.75626C6.08396 5.75626 6.14394 5.69659 6.14394 5.62258C6.14394 5.54858 6.08396 5.48891 6.01037 5.48891C5.93678 5.48891 5.87679 5.54858 5.87679 5.62258C5.87679 5.69659 5.93678 5.75626 6.01037 5.75626Z"
        fill="#2D3436" />
    <path fill-rule="evenodd" clip-rule="evenodd"
        d="M7.55304 5.16721C7.30167 5.16721 7.09757 5.37091 7.09757 5.62258C7.09757 5.87426 7.30167 6.07796 7.55304 6.07796C7.80441 6.07796 8.00852 5.87426 8.00852 5.62258C8.00852 5.37091 7.80441 5.16721 7.55304 5.16721ZM7.68662 5.62258C7.68662 5.69659 7.62663 5.75626 7.55304 5.75626C7.47945 5.75626 7.41947 5.69659 7.41947 5.62258C7.41947 5.54858 7.47945 5.48891 7.55304 5.48891C7.62663 5.48891 7.68662 5.54858 7.68662 5.62258Z"
        fill="#2D3436" />
    <path fill-rule="evenodd" clip-rule="evenodd"
        d="M4.78349 6.39319C4.78349 6.14152 4.9876 5.93782 5.23897 5.93782C5.49034 5.93782 5.69445 6.14152 5.69445 6.39319C5.69445 6.64487 5.49034 6.84857 5.23897 6.84857C4.9876 6.84857 4.78349 6.64487 4.78349 6.39319ZM5.23897 6.52687C5.31256 6.52687 5.37254 6.46721 5.37254 6.39319C5.37254 6.31918 5.31256 6.25951 5.23897 6.25951C5.16538 6.25951 5.1054 6.31918 5.1054 6.39319C5.1054 6.46721 5.16538 6.52687 5.23897 6.52687Z"
        fill="#2D3436" />
    <path fill-rule="evenodd" clip-rule="evenodd"
        d="M8.30082 5.93782C8.04945 5.93782 7.84534 6.14152 7.84534 6.39319C7.84534 6.64487 8.04945 6.84857 8.30082 6.84857C8.55219 6.84857 8.7563 6.64487 8.7563 6.39319C8.7563 6.14152 8.55219 5.93782 8.30082 5.93782ZM8.43439 6.39319C8.43439 6.4672 8.37441 6.52687 8.30082 6.52687C8.22723 6.52687 8.16724 6.4672 8.16724 6.39319C8.16724 6.31918 8.22723 6.25951 8.30082 6.25951C8.37441 6.25951 8.43439 6.31918 8.43439 6.39319Z"
        fill="#2D3436" />
    <path fill-rule="evenodd" clip-rule="evenodd"
        d="M6.32623 6.37115C6.32623 6.11947 6.53033 5.91578 6.7817 5.91578C7.03308 5.91578 7.23718 6.11947 7.23718 6.37115C7.23718 6.62282 7.03308 6.82652 6.7817 6.82652C6.53033 6.82652 6.32623 6.62282 6.32623 6.37115ZM6.7817 6.50483C6.85529 6.50483 6.91528 6.44516 6.91528 6.37115C6.91528 6.29714 6.85529 6.23747 6.7817 6.23747C6.70811 6.23747 6.64813 6.29714 6.64813 6.37115C6.64813 6.44516 6.70811 6.50483 6.7817 6.50483Z"
        fill="#2D3436" />
    <path fill-rule="evenodd" clip-rule="evenodd"
        d="M6.01037 6.6856C5.759 6.6856 5.55489 6.88929 5.55489 7.14097C5.55489 7.39265 5.759 7.59634 6.01037 7.59634C6.26174 7.59634 6.46584 7.39265 6.46584 7.14097C6.46584 6.88929 6.26174 6.6856 6.01037 6.6856ZM6.14394 7.14097C6.14394 7.21498 6.08395 7.27465 6.01037 7.27465C5.93678 7.27465 5.87679 7.21498 5.87679 7.14097C5.87679 7.06696 5.93678 7.00729 6.01037 7.00729C6.08395 7.00729 6.14394 7.06696 6.14394 7.14097Z"
        fill="#2D3436" />
    <path fill-rule="evenodd" clip-rule="evenodd"
        d="M7.09757 7.14097C7.09757 6.88929 7.30167 6.6856 7.55304 6.6856C7.80441 6.6856 8.00852 6.88929 8.00852 7.14097C8.00852 7.39265 7.80441 7.59634 7.55304 7.59634C7.30167 7.59634 7.09757 7.39265 7.09757 7.14097ZM7.55304 7.27465C7.62663 7.27465 7.68662 7.21498 7.68662 7.14097C7.68662 7.06696 7.62663 7.00729 7.55304 7.00729C7.47945 7.00729 7.41947 7.06696 7.41947 7.14097C7.41947 7.21498 7.47945 7.27465 7.55304 7.27465Z"
        fill="#2D3436" />
    <path fill-rule="evenodd" clip-rule="evenodd"
        d="M5.23897 7.45621C4.9876 7.45621 4.78349 7.6599 4.78349 7.91158C4.78349 8.16326 4.9876 8.36695 5.23897 8.36695C5.49034 8.36695 5.69445 8.16326 5.69445 7.91158C5.69445 7.6599 5.49034 7.45621 5.23897 7.45621ZM5.37254 7.91158C5.37254 7.98559 5.31256 8.04526 5.23897 8.04526C5.16538 8.04526 5.1054 7.98559 5.1054 7.91158C5.1054 7.83757 5.16538 7.7779 5.23897 7.7779C5.31256 7.7779 5.37254 7.83757 5.37254 7.91158Z"
        fill="#2D3436" />
    <path fill-rule="evenodd" clip-rule="evenodd"
        d="M7.84534 7.91158C7.84534 7.6599 8.04945 7.45621 8.30082 7.45621C8.55219 7.45621 8.7563 7.6599 8.7563 7.91158C8.7563 8.16326 8.55219 8.36695 8.30082 8.36695C8.04945 8.36695 7.84534 8.16326 7.84534 7.91158ZM8.30082 8.04526C8.37441 8.04526 8.43439 7.98559 8.43439 7.91158C8.43439 7.83757 8.37441 7.7779 8.30082 7.7779C8.22723 7.7779 8.16724 7.83757 8.16724 7.91158C8.16724 7.98559 8.22723 8.04526 8.30082 8.04526Z"
        fill="#2D3436" />
    <path fill-rule="evenodd" clip-rule="evenodd"
        d="M6.7817 7.43343C6.53033 7.43343 6.32623 7.63713 6.32623 7.88881C6.32623 8.14048 6.53033 8.34418 6.7817 8.34418C7.03308 8.34418 7.23718 8.14048 7.23718 7.88881C7.23718 7.63713 7.03308 7.43343 6.7817 7.43343ZM6.91528 7.88881C6.91528 7.96282 6.85529 8.02249 6.7817 8.02249C6.70811 8.02249 6.64813 7.96282 6.64813 7.88881C6.64813 7.8148 6.70811 7.75513 6.7817 7.75513C6.85529 7.75513 6.91528 7.8148 6.91528 7.88881Z"
        fill="#2D3436" />
    <path fill-rule="evenodd" clip-rule="evenodd"
        d="M5.55489 8.66014C5.55489 8.40847 5.75899 8.20477 6.01037 8.20477C6.26174 8.20477 6.46584 8.40847 6.46584 8.66014C6.46584 8.91182 6.26174 9.11552 6.01037 9.11552C5.75899 9.11552 5.55489 8.91182 5.55489 8.66014ZM6.01037 8.79382C6.08396 8.79382 6.14394 8.73415 6.14394 8.66014C6.14394 8.58613 6.08396 8.52646 6.01037 8.52646C5.93678 8.52646 5.87679 8.58613 5.87679 8.66014C5.87679 8.73415 5.93678 8.79382 6.01037 8.79382Z"
        fill="#2D3436" />
    <path fill-rule="evenodd" clip-rule="evenodd"
        d="M7.55304 8.20477C7.30167 8.20477 7.09757 8.40847 7.09757 8.66014C7.09757 8.91182 7.30167 9.11552 7.55304 9.11552C7.80441 9.11552 8.00852 8.91182 8.00852 8.66014C8.00852 8.40847 7.80441 8.20477 7.55304 8.20477ZM7.68662 8.66014C7.68662 8.73415 7.62663 8.79382 7.55304 8.79382C7.47945 8.79382 7.41947 8.73415 7.41947 8.66014C7.41947 8.58613 7.47945 8.52646 7.55304 8.52646C7.62663 8.52646 7.68662 8.58613 7.68662 8.66014Z"
        fill="#2D3436" />
    <path
        d="M11.4084 13.7839C11.5727 13.7839 11.706 13.6507 11.706 13.4864C11.706 13.3221 11.5727 13.1889 11.4084 13.1889C11.2441 13.1889 11.1109 13.3221 11.1109 13.4864C11.1109 13.6507 11.2441 13.7839 11.4084 13.7839Z"
        fill="#2D3436" />
    <path
        d="M10.5159 13.4863C10.6802 13.4863 10.8134 13.3531 10.8134 13.1888C10.8134 13.0245 10.6802 12.8913 10.5159 12.8913C10.3516 12.8913 10.2184 13.0245 10.2184 13.1888C10.2184 13.3531 10.3516 13.4863 10.5159 13.4863Z"
        fill="#2D3436" />
</svg>
