<svg width="10" height="11" viewBox="0 0 10 11" fill="none" xmlns="http://www.w3.org/2000/svg">
<path d="M1.74007 4.73059C1.31523 4.73066 0.970777 5.07512 0.970703 5.49995C0.97063 5.92479 1.31497 6.26912 1.7398 6.26905L4.23339 6.26862L4.23296 8.76221C4.23289 9.18704 4.57722 9.53138 5.00206 9.53131C5.42689 9.53123 5.77135 9.18678 5.77142 8.76194L5.77185 6.26835L8.26353 6.26792C8.68836 6.26784 9.03282 5.92339 9.03289 5.49855C9.03296 5.07372 8.68863 4.72938 8.26379 4.72945L5.77212 4.72989L5.77255 2.23821C5.77263 1.81338 5.42829 1.46904 5.00346 1.46912C4.57862 1.46919 4.23417 1.81365 4.23409 2.23848L4.23366 4.73015L1.74007 4.73059Z" fill="#DFE6E9"/>
</svg>
